<?xml version="1.0" encoding="UTF-8"?>
<svg version="1.1" xmlns="http://www.w3.org/2000/svg" width="30" height="30">
<path d="M0 0 C2.22808159 -0.10853983 4.45769932 -0.18583307 6.6875 -0.25 C7.92886719 -0.29640625 9.17023437 -0.3428125 10.44921875 -0.390625 C14.5696687 0.06266982 16.10787892 1.10251321 19 4 C20.86334915 7.7266983 20.56630878 11.94249097 20 16 C18.10273295 19.60407485 15.37359218 21.75093855 12 24 C11.67 24.99 11.34 25.98 11 27 C9.68 27 8.36 27 7 27 C6.7525 26.360625 6.505 25.72125 6.25 25.0625 C5.18437567 22.81258459 5.18437567 22.81258459 2.875 22.25 C2.25625 22.1675 1.6375 22.085 1 22 C1 21.34 1 20.68 1 20 C1.66 20 2.32 20 3 20 C3 19.34 3 18.68 3 18 C1.02 18 -0.96 18 -3 18 C-3 17.34 -3 16.68 -3 16 C-2.01 16 -1.02 16 0 16 C0 15.34 0 14.68 0 14 C-0.99 14 -1.98 14 -3 14 C-3 13.34 -3 12.68 -3 12 C-2.34 12 -1.68 12 -1 12 C-1 11.34 -1 10.68 -1 10 C-2.32 10 -3.64 10 -5 10 C-5 9.34 -5 8.68 -5 8 C-3.68 8 -2.36 8 -1 8 C-1.33 6.68 -1.66 5.36 -2 4 C-0.35 4 1.3 4 3 4 C3 3.34 3 2.68 3 2 C2.01 2 1.02 2 0 2 C0 1.34 0 0.68 0 0 Z M7 9 C7 10.32 7 11.64 7 13 C8.32 13 9.64 13 11 13 C11 11.68 11 10.36 11 9 C9.68 9 8.36 9 7 9 Z " fill="#000000" transform="translate(6,2)"/>
</svg>
